<svg width="122" height="35" viewBox="0 0 122 35" fill="none" xmlns="http://www.w3.org/2000/svg">
<g filter="url(#filter0_d)">
<rect x="4" width="114" height="27" rx="13.5" fill="#1D0609"/>
</g>
<path fill-rule="evenodd" clip-rule="evenodd" d="M21 5C16.5817 5 13 8.58172 13 13C13 14.6921 13.5242 16.2588 14.4192 17.5503C14.7153 17.9778 14.7867 18.5484 14.5521 19.0532L13.6473 21H21C25.4183 21 29 17.4183 29 13C29 8.58172 25.4183 5 21 5ZM11 13C11 7.47715 15.4772 3 21 3C26.5228 3 31 7.47715 31 13C31 18.5228 26.5228 23 21 23H12.8616C11.7274 23 11.0099 21.7933 11.5341 20.8016L12.6218 18.4613C11.5962 16.8909 11 15.0137 11 13Z" fill="#D69006"/>
<path fill-rule="evenodd" clip-rule="evenodd" d="M17 15C17 14.4477 17.4477 14 18 14H24C24.5523 14 25 14.4477 25 15C25 15.5523 24.5523 16 24 16H18C17.4477 16 17 15.5523 17 15Z" fill="#D69006"/>
<path fill-rule="evenodd" clip-rule="evenodd" d="M17 11C17 10.4477 17.4477 10 18 10H20C20.5523 10 21 10.4477 21 11C21 11.5523 20.5523 12 20 12H18C17.4477 12 17 11.5523 17 11Z" fill="#D69006"/>
<rect x="33" width="85" height="27" rx="13.5" fill="#360A0F"/>
<path d="M47.78 10.008C48.028 10.136 48.152 10.34 48.152 10.62C48.152 10.788 48.092 10.952 47.972 11.112C47.844 11.28 47.68 11.364 47.48 11.364C47.344 11.364 47.208 11.328 47.072 11.256C46.68 11.072 46.256 10.98 45.8 10.98C45.24 10.98 44.752 11.1 44.336 11.34C43.92 11.572 43.6 11.904 43.376 12.336C43.152 12.76 43.04 13.248 43.04 13.8C43.04 14.744 43.292 15.46 43.796 15.948C44.308 16.436 44.976 16.68 45.8 16.68C46.288 16.68 46.712 16.588 47.072 16.404C47.216 16.34 47.344 16.308 47.456 16.308C47.664 16.308 47.84 16.396 47.984 16.572C48.104 16.724 48.164 16.888 48.164 17.064C48.164 17.192 48.132 17.308 48.068 17.412C48.004 17.516 47.912 17.596 47.792 17.652C47.168 17.964 46.504 18.12 45.8 18.12C45.016 18.12 44.296 17.956 43.64 17.628C42.984 17.292 42.46 16.8 42.068 16.152C41.676 15.504 41.48 14.72 41.48 13.8C41.48 12.984 41.664 12.252 42.032 11.604C42.408 10.956 42.924 10.452 43.58 10.092C44.236 9.724 44.976 9.54 45.8 9.54C46.512 9.54 47.172 9.696 47.78 10.008ZM55.4714 14.796C55.4714 15.436 55.3274 16.012 55.0394 16.524C54.7514 17.028 54.3554 17.42 53.8514 17.7C53.3554 17.98 52.8074 18.12 52.2074 18.12C51.5994 18.12 51.0474 17.98 50.5514 17.7C50.0554 17.42 49.6634 17.028 49.3754 16.524C49.0874 16.012 48.9434 15.436 48.9434 14.796C48.9434 14.156 49.0874 13.584 49.3754 13.08C49.6634 12.568 50.0554 12.172 50.5514 11.892C51.0474 11.604 51.5994 11.46 52.2074 11.46C52.8074 11.46 53.3554 11.604 53.8514 11.892C54.3554 12.172 54.7514 12.568 55.0394 13.08C55.3274 13.584 55.4714 14.156 55.4714 14.796ZM54.0314 14.796C54.0314 14.404 53.9474 14.056 53.7794 13.752C53.6194 13.44 53.3994 13.2 53.1194 13.032C52.8474 12.864 52.5434 12.78 52.2074 12.78C51.8714 12.78 51.5634 12.864 51.2834 13.032C51.0114 13.2 50.7914 13.44 50.6234 13.752C50.4634 14.056 50.3834 14.404 50.3834 14.796C50.3834 15.188 50.4634 15.536 50.6234 15.84C50.7914 16.144 51.0114 16.38 51.2834 16.548C51.5634 16.716 51.8714 16.8 52.2074 16.8C52.5434 16.8 52.8474 16.716 53.1194 16.548C53.3994 16.38 53.6194 16.144 53.7794 15.84C53.9474 15.536 54.0314 15.188 54.0314 14.796ZM64.0785 11.46C64.8705 11.46 65.4185 11.704 65.7225 12.192C66.0265 12.672 66.1785 13.34 66.1785 14.196V17.268C66.1785 17.476 66.1105 17.652 65.9745 17.796C65.8385 17.932 65.6665 18 65.4585 18C65.2505 18 65.0785 17.932 64.9425 17.796C64.8065 17.652 64.7385 17.476 64.7385 17.268V14.196C64.7385 13.756 64.6505 13.412 64.4745 13.164C64.3065 12.908 64.0065 12.78 63.5745 12.78C63.1265 12.78 62.7745 12.916 62.5185 13.188C62.2705 13.452 62.1465 13.788 62.1465 14.196V17.268C62.1465 17.476 62.0785 17.652 61.9425 17.796C61.8065 17.932 61.6345 18 61.4265 18C61.2185 18 61.0465 17.932 60.9105 17.796C60.7745 17.652 60.7065 17.476 60.7065 17.268V14.196C60.7065 13.756 60.6185 13.412 60.4425 13.164C60.2745 12.908 59.9745 12.78 59.5425 12.78C59.0945 12.78 58.7425 12.916 58.4865 13.188C58.2385 13.452 58.1145 13.788 58.1145 14.196V17.268C58.1145 17.476 58.0465 17.652 57.9105 17.796C57.7745 17.932 57.6025 18 57.3945 18C57.1865 18 57.0145 17.932 56.8785 17.796C56.7425 17.652 56.6745 17.476 56.6745 17.268V12.312C56.6745 12.104 56.7425 11.932 56.8785 11.796C57.0145 11.652 57.1865 11.58 57.3945 11.58C57.6025 11.58 57.7745 11.652 57.9105 11.796C58.0465 11.932 58.1145 12.104 58.1145 12.312V12.504C58.3305 12.216 58.6025 11.972 58.9305 11.772C59.2665 11.564 59.6385 11.46 60.0465 11.46C61.0545 11.46 61.6985 11.9 61.9785 12.78C62.1625 12.444 62.4385 12.14 62.8065 11.868C63.1825 11.596 63.6065 11.46 64.0785 11.46ZM75.141 11.46C75.933 11.46 76.481 11.704 76.785 12.192C77.089 12.672 77.241 13.34 77.241 14.196V17.268C77.241 17.476 77.173 17.652 77.037 17.796C76.901 17.932 76.729 18 76.521 18C76.313 18 76.141 17.932 76.005 17.796C75.869 17.652 75.801 17.476 75.801 17.268V14.196C75.801 13.756 75.713 13.412 75.537 13.164C75.369 12.908 75.069 12.78 74.637 12.78C74.189 12.78 73.837 12.916 73.581 13.188C73.333 13.452 73.209 13.788 73.209 14.196V17.268C73.209 17.476 73.141 17.652 73.005 17.796C72.869 17.932 72.697 18 72.489 18C72.281 18 72.109 17.932 71.973 17.796C71.837 17.652 71.769 17.476 71.769 17.268V14.196C71.769 13.756 71.681 13.412 71.505 13.164C71.337 12.908 71.037 12.78 70.605 12.78C70.157 12.78 69.805 12.916 69.549 13.188C69.301 13.452 69.177 13.788 69.177 14.196V17.268C69.177 17.476 69.109 17.652 68.973 17.796C68.837 17.932 68.665 18 68.457 18C68.249 18 68.077 17.932 67.941 17.796C67.805 17.652 67.737 17.476 67.737 17.268V12.312C67.737 12.104 67.805 11.932 67.941 11.796C68.077 11.652 68.249 11.58 68.457 11.58C68.665 11.58 68.837 11.652 68.973 11.796C69.109 11.932 69.177 12.104 69.177 12.312V12.504C69.393 12.216 69.665 11.972 69.993 11.772C70.329 11.564 70.701 11.46 71.109 11.46C72.117 11.46 72.761 11.9 73.041 12.78C73.225 12.444 73.501 12.14 73.869 11.868C74.245 11.596 74.669 11.46 75.141 11.46ZM83.5635 11.58C83.7715 11.58 83.9435 11.652 84.0795 11.796C84.2155 11.932 84.2835 12.104 84.2835 12.312V15.36C84.2835 16.224 84.0435 16.9 83.5635 17.388C83.0915 17.876 82.4155 18.12 81.5355 18.12C80.6555 18.12 79.9795 17.876 79.5075 17.388C79.0355 16.9 78.7995 16.224 78.7995 15.36V12.312C78.7995 12.104 78.8675 11.932 79.0035 11.796C79.1395 11.652 79.3115 11.58 79.5195 11.58C79.7275 11.58 79.8995 11.652 80.0355 11.796C80.1715 11.932 80.2395 12.104 80.2395 12.312V15.36C80.2395 15.848 80.3475 16.212 80.5635 16.452C80.7795 16.684 81.1035 16.8 81.5355 16.8C81.9755 16.8 82.3035 16.684 82.5195 16.452C82.7355 16.212 82.8435 15.848 82.8435 15.36V12.312C82.8435 12.104 82.9115 11.932 83.0475 11.796C83.1835 11.652 83.3555 11.58 83.5635 11.58ZM89.2745 11.46C90.0905 11.46 90.6545 11.704 90.9665 12.192C91.2785 12.672 91.4345 13.34 91.4345 14.196V17.268C91.4345 17.476 91.3665 17.652 91.2305 17.796C91.0945 17.932 90.9225 18 90.7145 18C90.5065 18 90.3345 17.932 90.1985 17.796C90.0625 17.652 89.9945 17.476 89.9945 17.268V14.196C89.9945 13.756 89.9025 13.412 89.7185 13.164C89.5345 12.908 89.2185 12.78 88.7705 12.78C88.3065 12.78 87.9425 12.916 87.6785 13.188C87.4145 13.452 87.2825 13.788 87.2825 14.196V17.268C87.2825 17.476 87.2145 17.652 87.0785 17.796C86.9425 17.932 86.7705 18 86.5625 18C86.3545 18 86.1825 17.932 86.0465 17.796C85.9105 17.652 85.8425 17.476 85.8425 17.268V12.312C85.8425 12.104 85.9105 11.932 86.0465 11.796C86.1825 11.652 86.3545 11.58 86.5625 11.58C86.7705 11.58 86.9425 11.652 87.0785 11.796C87.2145 11.932 87.2825 12.104 87.2825 12.312V12.516C87.4985 12.228 87.7785 11.98 88.1225 11.772C88.4745 11.564 88.8585 11.46 89.2745 11.46ZM94.3469 17.268C94.3469 17.476 94.2789 17.652 94.1429 17.796C94.0069 17.932 93.8349 18 93.6269 18C93.4189 18 93.2469 17.932 93.1109 17.796C92.9749 17.652 92.9069 17.476 92.9069 17.268V12.312C92.9069 12.104 92.9749 11.932 93.1109 11.796C93.2469 11.652 93.4189 11.58 93.6269 11.58C93.8349 11.58 94.0069 11.652 94.1429 11.796C94.2789 11.932 94.3469 12.104 94.3469 12.312V17.268ZM93.6149 10.8C93.3429 10.8 93.1509 10.756 93.0389 10.668C92.9269 10.58 92.8709 10.424 92.8709 10.2V9.972C92.8709 9.748 92.9309 9.592 93.0509 9.504C93.1709 9.416 93.3629 9.372 93.6269 9.372C93.9069 9.372 94.1029 9.416 94.2149 9.504C94.3269 9.592 94.3829 9.748 94.3829 9.972V10.2C94.3829 10.432 94.3229 10.592 94.2029 10.68C94.0909 10.76 93.8949 10.8 93.6149 10.8ZM98.9229 16.644C99.0349 16.644 99.1349 16.7 99.2229 16.812C99.3189 16.916 99.3669 17.056 99.3669 17.232C99.3669 17.448 99.2469 17.632 99.0069 17.784C98.7749 17.928 98.5109 18 98.2149 18C97.7189 18 97.2989 17.896 96.9549 17.688C96.6189 17.472 96.4509 17.02 96.4509 16.332V13.02H95.8989C95.7069 13.02 95.5469 12.956 95.4189 12.828C95.2909 12.7 95.2269 12.54 95.2269 12.348C95.2269 12.164 95.2909 12.012 95.4189 11.892C95.5469 11.764 95.7069 11.7 95.8989 11.7H96.4509V10.932C96.4509 10.724 96.5189 10.552 96.6549 10.416C96.7989 10.272 96.9749 10.2 97.1829 10.2C97.3829 10.2 97.5509 10.272 97.6869 10.416C97.8229 10.552 97.8909 10.724 97.8909 10.932V11.7H98.7429C98.9349 11.7 99.0949 11.764 99.2229 11.892C99.3509 12.02 99.4149 12.18 99.4149 12.372C99.4149 12.556 99.3509 12.712 99.2229 12.84C99.0949 12.96 98.9349 13.02 98.7429 13.02H97.8909V16.272C97.8909 16.44 97.9349 16.564 98.0229 16.644C98.1109 16.716 98.2309 16.752 98.3829 16.752C98.4469 16.752 98.5349 16.736 98.6469 16.704C98.7429 16.664 98.8349 16.644 98.9229 16.644ZM105.501 11.58C105.709 11.58 105.881 11.652 106.017 11.796C106.153 11.932 106.221 12.104 106.221 12.312V17.412C106.221 18.452 105.941 19.208 105.381 19.68C104.821 20.16 104.073 20.4 103.137 20.4C102.865 20.4 102.585 20.376 102.297 20.328C102.017 20.288 101.789 20.232 101.613 20.16C101.221 19.992 101.025 19.76 101.025 19.464C101.025 19.408 101.037 19.344 101.061 19.272C101.109 19.096 101.189 18.96 101.301 18.864C101.421 18.776 101.549 18.732 101.685 18.732C101.765 18.732 101.841 18.744 101.913 18.768C101.969 18.792 102.065 18.832 102.201 18.888C102.345 18.944 102.493 18.988 102.645 19.02C102.805 19.06 102.969 19.08 103.137 19.08C103.705 19.08 104.121 18.956 104.385 18.708C104.657 18.468 104.793 18.052 104.793 17.46V17.34C104.377 17.86 103.729 18.12 102.849 18.12C102.433 18.12 102.065 18.024 101.745 17.832C101.425 17.632 101.177 17.36 101.001 17.016C100.825 16.664 100.737 16.264 100.737 15.816V12.312C100.737 12.104 100.805 11.932 100.941 11.796C101.077 11.652 101.249 11.58 101.457 11.58C101.665 11.58 101.837 11.652 101.973 11.796C102.109 11.932 102.177 12.104 102.177 12.312V15.384C102.177 15.888 102.285 16.252 102.501 16.476C102.725 16.692 103.049 16.8 103.473 16.8C103.889 16.8 104.209 16.68 104.433 16.44C104.665 16.192 104.781 15.84 104.781 15.384V12.312C104.781 12.104 104.849 11.932 104.985 11.796C105.121 11.652 105.293 11.58 105.501 11.58Z" fill="#D69006"/>
<defs>
<filter id="filter0_d" x="0" y="0" width="122" height="35" filterUnits="userSpaceOnUse" color-interpolation-filters="sRGB">
<feFlood flood-opacity="0" result="BackgroundImageFix"/>
<feColorMatrix in="SourceAlpha" type="matrix" values="0 0 0 0 0 0 0 0 0 0 0 0 0 0 0 0 0 0 127 0"/>
<feOffset dy="4"/>
<feGaussianBlur stdDeviation="2"/>
<feColorMatrix type="matrix" values="0 0 0 0 0 0 0 0 0 0 0 0 0 0 0 0 0 0 0.25 0"/>
<feBlend mode="normal" in2="BackgroundImageFix" result="effect1_dropShadow"/>
<feBlend mode="normal" in="SourceGraphic" in2="effect1_dropShadow" result="shape"/>
</filter>
</defs>
</svg>
