<svg width="32" height="32" xmlns="http://www.w3.org/2000/svg">

 <g>
  <title>background</title>
  <rect fill="none" id="canvas_background" height="34" width="34" y="-1" x="-1"/>
 </g>
 <g>
  <title>Layer 1</title>
  <circle stroke="null" id="svg_1" r="15.410081" fill="#8C9EFF" cy="16.407581" cx="15.999999"/>
  <path stroke="null" id="svg_2" fill="#FFFFFF" d="m24.4988,9.3747c0,0 -2.435488,-1.905878 -5.311839,-2.1247l-0.259258,0.518337c2.600633,0.636426 3.793685,1.548392 5.039699,2.668623c-2.148676,-1.096793 -4.270155,-2.1247 -7.96758,-2.1247s-5.819084,1.027907 -7.96758,2.1247c1.246192,-1.120231 2.665403,-2.132751 5.039699,-2.668623l-0.259258,-0.518337c-3.017342,0.285202 -5.311482,2.1247 -5.311482,2.1247s-2.720153,3.94398 -3.187139,11.685939c2.741981,3.161911 6.90532,3.186961 6.90532,3.186961l0.870635,-1.160668c-1.477718,-0.513685 -3.146703,-1.431019 -4.588815,-3.088732c1.719978,1.3013 4.31578,2.65592 8.4988,2.65592s6.778822,-1.35444 8.4988,-2.65592c-1.442112,1.657713 -3.111098,2.575226 -4.588815,3.088732l0.870635,1.160668c0,0 4.163338,-0.025049 6.90532,-3.187139c-0.466987,-7.741781 -3.187139,-11.685761 -3.187139,-11.685761zm-11.95146,9.561239c-1.026834,0 -1.85918,-0.951329 -1.85918,-2.1247s0.832346,-2.1247 1.85918,-2.1247c1.026834,0 1.85918,0.951329 1.85918,2.1247s-0.832346,2.1247 -1.85918,2.1247zm6.90532,0c-1.026834,0 -1.85918,-0.951329 -1.85918,-2.1247s0.832346,-2.1247 1.85918,-2.1247c1.026834,0 1.85918,0.951329 1.85918,2.1247s-0.832525,2.1247 -1.85918,2.1247z"/>
  <path stroke="null" id="svg_3" opacity="0.1" fill="#231F20" d="m4.2218,27.369757c2.962017,2.962017 7.054023,4.794045 11.573979,4.794045c9.039762,0 16.368024,-7.328262 16.368024,-16.368024c0,-4.519955 -1.832028,-8.611961 -4.794045,-11.573979l-23.147957,23.147957z"/>
 </g>
</svg>