<svg width="32" height="32" xmlns="http://www.w3.org/2000/svg">
 <title/>
 <desc/>

 <g>
  <title>background</title>
  <rect fill="none" id="canvas_background" height="34" width="34" y="-1" x="-1"/>
 </g>
 <g>
  <title>Layer 1</title>
  <path stroke="null" id="svg_1" d="m12.069087,31.05168c0,-0.386429 -0.013628,-1.408905 -0.021422,-2.76689c-4.412472,0.982537 -5.343462,-2.180759 -5.343462,-2.180759c-0.721621,-1.879208 -1.761686,-2.379464 -1.761686,-2.379464c-1.440311,-1.009501 0.109075,-0.988535 0.109075,-0.988535c1.59223,0.114832 2.429731,1.676515 2.429731,1.676515c1.414989,2.4853 3.712281,1.768371 4.616977,1.351987c0.144133,-1.051442 0.554115,-1.768371 1.006957,-2.17477c-3.522383,-0.410386 -7.2259,-1.806316 -7.2259,-8.03905c0,-1.775365 0.618388,-3.227208 1.633131,-4.364516c-0.162633,-0.411391 -0.707984,-2.064938 0.155811,-4.304608c0,0 1.332216,-0.43735 4.361835,1.667527c1.265021,-0.360471 2.622551,-0.542197 3.972295,-0.548186c1.346823,0.005989 2.703382,0.187715 3.971324,0.548186c3.027678,-2.104877 4.357943,-1.667527 4.357943,-1.667527c0.865746,2.238673 0.321366,3.89222 0.157761,4.304608c1.016693,1.137308 1.630209,2.589151 1.630209,4.364516c0,6.248708 -3.70936,7.623672 -7.243429,8.026067c0.570673,0.502259 1.077065,1.49478 1.077065,3.012529c0,2.17477 -0.020451,3.92916 -0.020451,4.46237c0,0.435356 0.286308,0.940605 1.091681,0.781838c6.297823,-2.1548 10.83885,-8.247749 10.83885,-15.431072c0,-8.983651 -7.103197,-16.265833 -15.863876,-16.265833c-8.7597,0 -15.862897,7.282182 -15.862897,16.265833c0.000971,7.185326 4.54589,13.282261 10.849565,15.433066c0.792708,0.148782 1.082908,-0.353468 1.082908,-0.783832z"/>
 </g>
</svg>