<svg width="74" height="35" viewBox="0 0 74 35" fill="none" xmlns="http://www.w3.org/2000/svg">
<g filter="url(#filter0_d)">
<rect x="4" width="66" height="27" rx="13.5" fill="#1D0609"/>
</g>
<rect x="32" width="38" height="27" rx="13.5" fill="#360A0F"/>
<path d="M48.184 9.588C48.384 9.588 48.556 9.66 48.7 9.804C48.852 9.94 48.928 10.112 48.928 10.32V17.268C48.928 17.476 48.86 17.652 48.724 17.796C48.588 17.932 48.408 18 48.184 18C47.96 18 47.776 17.932 47.632 17.796C47.496 17.66 47.428 17.484 47.428 17.268V12.432L45.448 15.456C45.368 15.552 45.276 15.632 45.172 15.696C45.068 15.752 44.96 15.776 44.848 15.768C44.744 15.776 44.64 15.752 44.536 15.696C44.432 15.632 44.34 15.552 44.26 15.456L42.28 12.324V17.268C42.28 17.484 42.216 17.66 42.088 17.796C41.96 17.932 41.792 18 41.584 18C41.384 18 41.22 17.932 41.092 17.796C40.964 17.652 40.9 17.476 40.9 17.268V10.32C40.9 10.12 40.972 9.948 41.116 9.804C41.268 9.66 41.448 9.588 41.656 9.588C41.776 9.588 41.896 9.62 42.016 9.684C42.136 9.74 42.228 9.816 42.292 9.912L44.908 13.932L47.596 9.912C47.66 9.816 47.744 9.74 47.848 9.684C47.96 9.62 48.072 9.588 48.184 9.588ZM52.232 17.268C52.232 17.476 52.156 17.652 52.004 17.796C51.852 17.932 51.676 18 51.476 18C51.26 18 51.08 17.932 50.936 17.796C50.8 17.652 50.732 17.476 50.732 17.268V10.332C50.732 10.124 50.804 9.952 50.948 9.816C51.092 9.672 51.276 9.6 51.5 9.6C51.7 9.6 51.872 9.672 52.016 9.816C52.16 9.952 52.232 10.124 52.232 10.332V17.268ZM59.5567 9.6C59.7727 9.6 59.9487 9.664 60.0847 9.792C60.2207 9.92 60.2887 10.088 60.2887 10.296C60.2887 10.504 60.2207 10.672 60.0847 10.8C59.9487 10.92 59.7727 10.98 59.5567 10.98H57.6727V17.268C57.6727 17.476 57.5967 17.652 57.4447 17.796C57.2927 17.932 57.1047 18 56.8807 18C56.6567 18 56.4727 17.932 56.3287 17.796C56.1847 17.652 56.1127 17.476 56.1127 17.268V10.98H54.2287C54.0127 10.98 53.8367 10.916 53.7007 10.788C53.5647 10.66 53.4967 10.492 53.4967 10.284C53.4967 10.084 53.5647 9.92 53.7007 9.792C53.8447 9.664 54.0207 9.6 54.2287 9.6H59.5567Z" fill="#D69006"/>
<path fill-rule="evenodd" clip-rule="evenodd" d="M16 18C16 17.4477 16.4477 17 17 17H23C23.5523 17 24 17.4477 24 18C24 18.5523 23.5523 19 23 19H17C16.4477 19 16 18.5523 16 18Z" fill="#D69006"/>
<path fill-rule="evenodd" clip-rule="evenodd" d="M16 14C16 13.4477 16.4477 13 17 13H23C23.5523 13 24 13.4477 24 14C24 14.5523 23.5523 15 23 15H17C16.4477 15 16 14.5523 16 14Z" fill="#D69006"/>
<path fill-rule="evenodd" clip-rule="evenodd" d="M16 10C16 9.44772 16.4477 9 17 9H18C18.5523 9 19 9.44772 19 10C19 10.5523 18.5523 11 18 11H17C16.4477 11 16 10.5523 16 10Z" fill="#D69006"/>
<path fill-rule="evenodd" clip-rule="evenodd" d="M16 5C14.8954 5 14 5.89543 14 7V19C14 20.1046 14.8954 21 16 21H24C25.1046 21 26 20.1046 26 19V9.82843C26 9.56321 25.8946 9.30886 25.7071 9.12132L21.8787 5.29289C21.6911 5.10536 21.4368 5 21.1716 5H16ZM12 7C12 4.79086 13.7909 3 16 3H21.1716C21.9672 3 22.7303 3.31607 23.2929 3.87868L27.1213 7.70711C27.6839 8.26972 28 9.03278 28 9.82843V19C28 21.2091 26.2091 23 24 23H16C13.7909 23 12 21.2091 12 19V7Z" fill="#D69006"/>
<path fill-rule="evenodd" clip-rule="evenodd" d="M22 4V6C22 7.65685 23.3431 9 25 9H27V11H25C22.2386 11 20 8.76142 20 6V4H22Z" fill="#D69006"/>
<defs>
<filter id="filter0_d" x="0" y="0" width="74" height="35" filterUnits="userSpaceOnUse" color-interpolation-filters="sRGB">
<feFlood flood-opacity="0" result="BackgroundImageFix"/>
<feColorMatrix in="SourceAlpha" type="matrix" values="0 0 0 0 0 0 0 0 0 0 0 0 0 0 0 0 0 0 127 0"/>
<feOffset dy="4"/>
<feGaussianBlur stdDeviation="2"/>
<feColorMatrix type="matrix" values="0 0 0 0 0 0 0 0 0 0 0 0 0 0 0 0 0 0 0.25 0"/>
<feBlend mode="normal" in2="BackgroundImageFix" result="effect1_dropShadow"/>
<feBlend mode="normal" in="SourceGraphic" in2="effect1_dropShadow" result="shape"/>
</filter>
</defs>
</svg>
