<svg width="32" height="32" xmlns="http://www.w3.org/2000/svg">

 <g>
  <title>background</title>
  <rect fill="none" id="canvas_background" height="34" width="34" y="-1" x="-1"/>
 </g>
 <g>
  <title>Layer 1</title>
  <circle stroke="null" id="svg_2" r="15.989966" fill="#0076B4" cy="15.989965" cx="15.989965"/>
  <path stroke="null" id="svg_4" fill="#FFFFFF" d="m10.569418,25.227068l-4.07956,0l0,-12.326382l4.07956,0l0,12.326382zm-2.038551,-14.010591c-1.308956,0 -2.364424,-0.995272 -2.364424,-2.221902c0,-1.226116 1.055468,-2.221645 2.364424,-2.221645c1.303219,0 2.361693,0.995272 2.361693,2.221645c0.000273,1.22663 -1.0582,2.221902 -2.361693,2.221902zm17.30269,14.010591l-4.07519,0l0,-5.994231c0,-1.429228 -0.026496,-3.268273 -2.117493,-3.268273c-2.121044,0 -2.444185,1.55736 -2.444185,3.166076l0,6.096429l-4.070546,0l0,-12.326382l3.906381,0l0,1.684979l0.055723,0c0.543577,-0.969081 1.873019,-1.990802 3.85612,-1.990802c4.125997,0 4.888644,2.552119 4.888644,5.872005l0.000546,6.760201l0,0z"/>
 </g>
</svg>