<svg width="32" height="32" xmlns="http://www.w3.org/2000/svg">

 <g>
  <title>background</title>
  <rect fill="none" id="canvas_background" height="34" width="34" y="-1" x="-1"/>
 </g>
 <g>
  <title>Layer 1</title>
  <path stroke="null" fill="#038fd6" id="svg_2" fill-rule="evenodd" d="m10.74586,18.052388c-0.967749,0.737342 -1.912187,1.45657 -2.856089,2.176428c-1.889726,1.441323 -3.782413,2.878802 -5.664924,4.329575c-0.249876,0.19251 -0.450986,0.215633 -0.722536,0.057082c-0.387257,-0.22606 -0.79581,-0.415767 -1.197054,-0.617507c-0.214436,-0.107801 -0.305414,-0.273597 -0.305257,-0.516007c0.003182,-5.00429 -0.000378,-10.008612 0.014649,-15.012934c0.000473,-0.163717 0.142989,-0.390628 0.286355,-0.47833c0.427391,-0.261595 0.889781,-0.465446 1.335412,-0.697806c0.243229,-0.126828 0.425595,-0.018208 0.613317,0.125599c1.555455,1.1911 3.112832,2.379712 4.670178,3.568386c1.275999,0.973924 2.552754,1.946839 3.844031,2.931568c0.093845,-0.087923 0.179972,-0.165859 0.263107,-0.24682c4.656632,-4.536923 9.314366,-9.072586 13.965327,-13.615337c0.235889,-0.230376 0.443615,-0.262981 0.742445,-0.141445c1.970119,0.801071 3.948177,1.582484 5.915651,2.390013c0.145131,0.059602 0.249624,0.261878 0.330112,0.419768c0.048041,0.094286 0.014019,0.231321 0.014019,0.349139c0.000315,8.60484 0.000252,17.209681 0.000315,25.814553c0,0.638897 -0.000725,0.636818 -0.610545,0.880551c-1.875739,0.749785 -3.754123,1.493175 -5.623026,2.259625c-0.329167,0.134893 -0.54039,0.091388 -0.792219,-0.154172c-4.609126,-4.493607 -9.225907,-8.979182 -13.84146,-13.466142c-0.114763,-0.111518 -0.23403,-0.218342 -0.381807,-0.355786zm13.423394,4.082755c0,-4.133757 0,-8.19257 0,-12.303425c-2.751879,2.05905 -5.46079,4.085968 -8.192287,6.129771c2.74098,2.065571 5.446582,4.104618 8.192287,6.173654zm-17.185991,-6.169023c-1.376806,-1.22969 -2.717857,-2.427438 -4.084992,-3.648496c0,2.478566 0,4.893276 0,7.355556c1.381153,-1.25338 2.718109,-2.466689 4.084992,-3.707059z" clip-rule="evenodd"/>
 </g>
</svg>