<svg width="99" height="35" viewBox="0 0 99 35" fill="none" xmlns="http://www.w3.org/2000/svg">
<g filter="url(#filter0_d)">
<rect x="4" width="91" height="27" rx="13.5" fill="#1D0609"/>
</g>
<rect x="33" width="62" height="27" rx="13.5" fill="#360A0F"/>
<path d="M49.344 9.564C49.536 9.564 49.712 9.64 49.872 9.792C50.04 9.936 50.124 10.12 50.124 10.344C50.124 10.416 50.112 10.496 50.088 10.584L47.724 17.544C47.676 17.68 47.592 17.788 47.472 17.868C47.352 17.948 47.22 17.992 47.076 18C46.932 18 46.796 17.96 46.668 17.88C46.54 17.8 46.44 17.684 46.368 17.532L44.664 13.656L42.948 17.532C42.876 17.684 42.776 17.8 42.648 17.88C42.52 17.96 42.384 18 42.24 18C42.096 17.992 41.964 17.948 41.844 17.868C41.724 17.788 41.64 17.68 41.592 17.544L39.228 10.584C39.204 10.496 39.192 10.416 39.192 10.344C39.192 10.12 39.272 9.936 39.432 9.792C39.6 9.64 39.784 9.564 39.984 9.564C40.144 9.564 40.288 9.608 40.416 9.696C40.544 9.776 40.632 9.888 40.68 10.032L42.468 15.456L44.028 11.712C44.092 11.568 44.184 11.456 44.304 11.376C44.424 11.288 44.56 11.248 44.712 11.256C44.864 11.248 44.996 11.288 45.108 11.376C45.228 11.456 45.32 11.568 45.384 11.712L46.86 15.42L48.636 10.032C48.684 9.888 48.772 9.776 48.9 9.696C49.036 9.608 49.184 9.564 49.344 9.564ZM56.6845 14.64C56.6765 14.832 56.6005 14.988 56.4565 15.108C56.3125 15.228 56.1445 15.288 55.9525 15.288H51.9925C52.0885 15.76 52.3085 16.132 52.6525 16.404C52.9965 16.668 53.3845 16.8 53.8165 16.8C54.1445 16.8 54.4005 16.772 54.5845 16.716C54.7685 16.652 54.9125 16.588 55.0165 16.524C55.1285 16.452 55.2045 16.404 55.2445 16.38C55.3885 16.308 55.5245 16.272 55.6525 16.272C55.8205 16.272 55.9645 16.332 56.0845 16.452C56.2045 16.572 56.2645 16.712 56.2645 16.872C56.2645 17.088 56.1525 17.284 55.9285 17.46C55.7045 17.644 55.4045 17.8 55.0285 17.928C54.6525 18.056 54.2725 18.12 53.8885 18.12C53.2165 18.12 52.6285 17.98 52.1245 17.7C51.6285 17.42 51.2445 17.036 50.9725 16.548C50.7005 16.052 50.5645 15.496 50.5645 14.88C50.5645 14.192 50.7085 13.588 50.9965 13.068C51.2845 12.548 51.6645 12.152 52.1365 11.88C52.6085 11.6 53.1125 11.46 53.6485 11.46C54.1765 11.46 54.6725 11.604 55.1365 11.892C55.6085 12.18 55.9845 12.568 56.2645 13.056C56.5445 13.544 56.6845 14.072 56.6845 14.64ZM53.6485 12.78C52.7205 12.78 52.1725 13.216 52.0045 14.088H55.1485V14.004C55.1165 13.668 54.9525 13.38 54.6565 13.14C54.3605 12.9 54.0245 12.78 53.6485 12.78ZM61.2095 11.46C61.7615 11.46 62.2615 11.604 62.7095 11.892C63.1575 12.172 63.5095 12.564 63.7655 13.068C64.0295 13.572 64.1615 14.144 64.1615 14.784C64.1615 15.424 64.0335 16 63.7775 16.512C63.5215 17.016 63.1695 17.412 62.7215 17.7C62.2815 17.98 61.7935 18.12 61.2575 18.12C60.8735 18.12 60.5095 18.044 60.1655 17.892C59.8295 17.732 59.5495 17.54 59.3255 17.316V17.388C59.3255 17.596 59.2575 17.772 59.1215 17.916C58.9855 18.052 58.8135 18.12 58.6055 18.12C58.3975 18.12 58.2255 18.052 58.0895 17.916C57.9535 17.78 57.8855 17.604 57.8855 17.388V9.852C57.8855 9.644 57.9535 9.472 58.0895 9.336C58.2255 9.192 58.3975 9.12 58.6055 9.12C58.8135 9.12 58.9855 9.192 59.1215 9.336C59.2575 9.472 59.3255 9.644 59.3255 9.852V12.36C59.5175 12.12 59.7855 11.912 60.1295 11.736C60.4735 11.552 60.8335 11.46 61.2095 11.46ZM61.0295 16.8C61.5415 16.8 61.9615 16.608 62.2895 16.224C62.6175 15.84 62.7815 15.36 62.7815 14.784C62.7815 14.208 62.6175 13.732 62.2895 13.356C61.9695 12.972 61.5495 12.78 61.0295 12.78C60.5095 12.78 60.0855 12.972 59.7575 13.356C59.4295 13.732 59.2655 14.208 59.2655 14.784C59.2655 15.36 59.4295 15.84 59.7575 16.224C60.0855 16.608 60.5095 16.8 61.0295 16.8ZM64.99 17.004C64.918 16.908 64.882 16.788 64.882 16.644C64.882 16.436 64.986 16.26 65.194 16.116C65.306 16.044 65.422 16.008 65.542 16.008C65.71 16.008 65.87 16.084 66.022 16.236C66.262 16.484 66.51 16.668 66.766 16.788C67.03 16.908 67.346 16.968 67.714 16.968C68.338 16.944 68.65 16.708 68.65 16.26C68.65 16.028 68.542 15.852 68.326 15.732C68.118 15.612 67.79 15.492 67.342 15.372C66.878 15.244 66.498 15.116 66.202 14.988C65.914 14.86 65.662 14.668 65.446 14.412C65.238 14.148 65.134 13.796 65.134 13.356C65.134 12.972 65.242 12.64 65.458 12.36C65.682 12.072 65.97 11.852 66.322 11.7C66.682 11.54 67.062 11.46 67.462 11.46C67.87 11.46 68.278 11.536 68.686 11.688C69.094 11.84 69.414 12.064 69.646 12.36C69.75 12.488 69.802 12.632 69.802 12.792C69.802 12.976 69.726 13.128 69.574 13.248C69.462 13.336 69.334 13.38 69.19 13.38C69.014 13.38 68.87 13.324 68.758 13.212C68.614 13.036 68.426 12.896 68.194 12.792C67.97 12.688 67.714 12.636 67.426 12.636C66.818 12.636 66.514 12.856 66.514 13.296C66.514 13.472 66.57 13.616 66.682 13.728C66.794 13.832 66.934 13.916 67.102 13.98C67.278 14.036 67.522 14.108 67.834 14.196C68.266 14.316 68.626 14.44 68.914 14.568C69.202 14.696 69.446 14.892 69.646 15.156C69.846 15.42 69.946 15.768 69.946 16.2C69.946 16.592 69.83 16.936 69.598 17.232C69.366 17.52 69.066 17.74 68.698 17.892C68.338 18.044 67.966 18.12 67.582 18.12C67.054 18.12 66.562 18.032 66.106 17.856C65.65 17.68 65.278 17.396 64.99 17.004ZM72.5071 17.268C72.5071 17.476 72.4391 17.652 72.3031 17.796C72.1671 17.932 71.9951 18 71.7871 18C71.5791 18 71.4071 17.932 71.2711 17.796C71.1351 17.652 71.0671 17.476 71.0671 17.268V12.312C71.0671 12.104 71.1351 11.932 71.2711 11.796C71.4071 11.652 71.5791 11.58 71.7871 11.58C71.9951 11.58 72.1671 11.652 72.3031 11.796C72.4391 11.932 72.5071 12.104 72.5071 12.312V17.268ZM71.7751 10.8C71.5031 10.8 71.3111 10.756 71.1991 10.668C71.0871 10.58 71.0311 10.424 71.0311 10.2V9.972C71.0311 9.748 71.0911 9.592 71.2111 9.504C71.3311 9.416 71.5231 9.372 71.7871 9.372C72.0671 9.372 72.2631 9.416 72.3751 9.504C72.4871 9.592 72.5431 9.748 72.5431 9.972V10.2C72.5431 10.432 72.4831 10.592 72.3631 10.68C72.2511 10.76 72.0551 10.8 71.7751 10.8ZM77.083 16.644C77.195 16.644 77.295 16.7 77.383 16.812C77.479 16.916 77.527 17.056 77.527 17.232C77.527 17.448 77.407 17.632 77.167 17.784C76.935 17.928 76.671 18 76.375 18C75.879 18 75.459 17.896 75.115 17.688C74.779 17.472 74.611 17.02 74.611 16.332V13.02H74.059C73.867 13.02 73.707 12.956 73.579 12.828C73.451 12.7 73.387 12.54 73.387 12.348C73.387 12.164 73.451 12.012 73.579 11.892C73.707 11.764 73.867 11.7 74.059 11.7H74.611V10.932C74.611 10.724 74.679 10.552 74.815 10.416C74.959 10.272 75.135 10.2 75.343 10.2C75.543 10.2 75.711 10.272 75.847 10.416C75.983 10.552 76.051 10.724 76.051 10.932V11.7H76.903C77.095 11.7 77.255 11.764 77.383 11.892C77.511 12.02 77.575 12.18 77.575 12.372C77.575 12.556 77.511 12.712 77.383 12.84C77.255 12.96 77.095 13.02 76.903 13.02H76.051V16.272C76.051 16.44 76.095 16.564 76.183 16.644C76.271 16.716 76.391 16.752 76.543 16.752C76.607 16.752 76.695 16.736 76.807 16.704C76.903 16.664 76.995 16.644 77.083 16.644ZM84.5986 14.64C84.5906 14.832 84.5146 14.988 84.3706 15.108C84.2266 15.228 84.0586 15.288 83.8666 15.288H79.9066C80.0026 15.76 80.2226 16.132 80.5666 16.404C80.9106 16.668 81.2986 16.8 81.7306 16.8C82.0586 16.8 82.3146 16.772 82.4986 16.716C82.6826 16.652 82.8266 16.588 82.9306 16.524C83.0426 16.452 83.1186 16.404 83.1586 16.38C83.3026 16.308 83.4386 16.272 83.5666 16.272C83.7346 16.272 83.8786 16.332 83.9986 16.452C84.1186 16.572 84.1786 16.712 84.1786 16.872C84.1786 17.088 84.0666 17.284 83.8426 17.46C83.6186 17.644 83.3186 17.8 82.9426 17.928C82.5666 18.056 82.1866 18.12 81.8026 18.12C81.1306 18.12 80.5426 17.98 80.0386 17.7C79.5426 17.42 79.1586 17.036 78.8866 16.548C78.6146 16.052 78.4786 15.496 78.4786 14.88C78.4786 14.192 78.6226 13.588 78.9106 13.068C79.1986 12.548 79.5786 12.152 80.0506 11.88C80.5226 11.6 81.0266 11.46 81.5626 11.46C82.0906 11.46 82.5866 11.604 83.0506 11.892C83.5226 12.18 83.8986 12.568 84.1786 13.056C84.4586 13.544 84.5986 14.072 84.5986 14.64ZM81.5626 12.78C80.6346 12.78 80.0866 13.216 79.9186 14.088H83.0626V14.004C83.0306 13.668 82.8666 13.38 82.5706 13.14C82.2746 12.9 81.9386 12.78 81.5626 12.78Z" fill="#D69006"/>
<path fill-rule="evenodd" clip-rule="evenodd" d="M21 6C16.5817 6 13 9.58172 13 14C13 18.4183 16.5817 22 21 22C25.4183 22 29 18.4183 29 14C29 9.58172 25.4183 6 21 6ZM11 14C11 8.47715 15.4772 4 21 4C26.5228 4 31 8.47715 31 14C31 19.5228 26.5228 24 21 24C15.4772 24 11 19.5228 11 14Z" fill="#D69006"/>
<path fill-rule="evenodd" clip-rule="evenodd" d="M19.8274 7.95227C19.3268 9.45402 19 11.5923 19 14C19 16.4077 19.3268 18.546 19.8274 20.0477C20.0794 20.8038 20.3575 21.3436 20.6177 21.6738C20.7455 21.8359 20.8494 21.9225 20.9186 21.9649C20.9515 21.9852 20.9736 21.9935 20.9847 21.9969C20.9948 22 20.999 22 20.9999 22H21C21.0007 22 21.0049 22.0001 21.0153 21.9969C21.0264 21.9935 21.0485 21.9852 21.0814 21.9649C21.1506 21.9225 21.2545 21.8359 21.3823 21.6738C21.6425 21.3436 21.9206 20.8038 22.1726 20.0477C22.6732 18.546 23 16.4077 23 14C23 11.5923 22.6732 9.45402 22.1726 7.95227C21.9206 7.19616 21.6425 6.65642 21.3823 6.32624C21.2545 6.16408 21.1506 6.07752 21.0814 6.03507C21.0485 6.01483 21.0264 6.00645 21.0153 6.00305C21.0052 5.99998 21.001 6 21.0001 6L21 6L20.9999 6C20.999 6 20.9948 5.99998 20.9847 6.00305C20.9736 6.00645 20.9515 6.01483 20.9186 6.03507C20.8494 6.07752 20.7455 6.16408 20.6177 6.32624C20.3575 6.65642 20.0794 7.19616 19.8274 7.95227ZM19.0469 5.08829C19.4956 4.51889 20.1481 4 21 4C21.8519 4 22.5044 4.51889 22.9531 5.08829C23.4108 5.66896 23.7791 6.44724 24.07 7.31981C24.6552 9.07541 25 11.4371 25 14C25 16.5629 24.6552 18.9246 24.07 20.6802C23.7791 21.5528 23.4108 22.331 22.9531 22.9117C22.5044 23.4811 21.8519 24 21 24C20.1481 24 19.4956 23.4811 19.0469 22.9117C18.5892 22.331 18.2209 21.5528 17.93 20.6802C17.3448 18.9246 17 16.5629 17 14C17 11.4371 17.3448 9.07541 17.93 7.31981C18.2209 6.44724 18.5892 5.66896 19.0469 5.08829Z" fill="#D69006"/>
<path fill-rule="evenodd" clip-rule="evenodd" d="M13 14C13 14.0009 13 14.0052 13.0031 14.0153C13.0064 14.0264 13.0148 14.0485 13.0351 14.0814C13.0775 14.1506 13.1641 14.2545 13.3262 14.3823C13.6564 14.6425 14.1962 14.9206 14.9523 15.1726C16.454 15.6732 18.5923 16 21 16C23.4077 16 25.546 15.6732 27.0477 15.1726C27.8038 14.9206 28.3436 14.6425 28.6738 14.3823C28.8359 14.2545 28.9225 14.1506 28.9649 14.0814C28.9852 14.0485 28.9935 14.0264 28.9969 14.0153C29 14.0052 29 14.001 29 14.0001C29 13.9992 29 13.9948 28.9969 13.9847C28.9935 13.9736 28.9852 13.9516 28.9649 13.9186C28.9225 13.8494 28.8359 13.7455 28.6738 13.6177C28.3436 13.3575 27.8038 13.0794 27.0477 12.8274C25.546 12.3268 23.4077 12 21 12C18.5923 12 16.454 12.3268 14.9523 12.8274C14.1962 13.0794 13.6564 13.3575 13.3262 13.6177C13.1641 13.7455 13.0775 13.8494 13.0351 13.9186C13.0148 13.9515 13.0064 13.9736 13.0031 13.9847C13 13.9948 13 13.9991 13 14ZM14.3198 10.93C16.0754 10.3448 18.4371 10 21 10C23.5629 10 25.9246 10.3448 27.6802 10.93C28.5528 11.2209 29.331 11.5892 29.9117 12.0469C30.4811 12.4956 31 13.1481 31 14C31 14.8519 30.4811 15.5044 29.9117 15.9531C29.331 16.4108 28.5528 16.7791 27.6802 17.07C25.9246 17.6552 23.5629 18 21 18C18.4371 18 16.0754 17.6552 14.3198 17.07C13.4472 16.7791 12.669 16.4108 12.0883 15.9531C11.5189 15.5044 11 14.8519 11 14C11 13.1481 11.5189 12.4956 12.0883 12.0469C12.669 11.5892 13.4472 11.2209 14.3198 10.93Z" fill="#D69006"/>
<defs>
<filter id="filter0_d" x="0" y="0" width="99" height="35" filterUnits="userSpaceOnUse" color-interpolation-filters="sRGB">
<feFlood flood-opacity="0" result="BackgroundImageFix"/>
<feColorMatrix in="SourceAlpha" type="matrix" values="0 0 0 0 0 0 0 0 0 0 0 0 0 0 0 0 0 0 127 0"/>
<feOffset dy="4"/>
<feGaussianBlur stdDeviation="2"/>
<feColorMatrix type="matrix" values="0 0 0 0 0 0 0 0 0 0 0 0 0 0 0 0 0 0 0.25 0"/>
<feBlend mode="normal" in2="BackgroundImageFix" result="effect1_dropShadow"/>
<feBlend mode="normal" in="SourceGraphic" in2="effect1_dropShadow" result="shape"/>
</filter>
</defs>
</svg>
